<?xml version="1.0" standalone="no"?>
<!DOCTYPE svg PUBLIC "-//W3C//DTD SVG 1.1//EN" "http://www.w3.org/Graphics/SVG/1.1/DTD/svg11.dtd" >
<svg xmlns="http://www.w3.org/2000/svg">
<metadata></metadata>
<defs>
<font id="proxima_nova_lightlight" horiz-adv-x="571" >
<font-face units-per-em="1000" ascent="800" descent="-200" />
<missing-glyph horiz-adv-x="259" />
<glyph unicode="&#xd;" horiz-adv-x="333" />
<glyph unicode=" "  horiz-adv-x="259" />
<glyph unicode="&#x09;" horiz-adv-x="259" />
<glyph unicode="&#xa0;" horiz-adv-x="259" />
<glyph unicode="!" horiz-adv-x="219" d="M89 174l-13 493h67l-13 -493h-41zM110 -9q-18 0 -31 13t-13 31q0 17 13 30t31 13t31 -13t13 -30q0 -18 -13 -31t-31 -13z" />
<glyph unicode="&#x22;" horiz-adv-x="317" d="M79 427q-7 56 -11 102q-2 19 -3.5 38t-3.5 35l-2 26q-1 10 -1 13q0 15 10 25.5t26 10.5q15 0 25.5 -10.5t10.5 -25.5q0 -3 -1 -13l-3 -26l-3 -35l-4 -38q-4 -46 -10 -102h-30zM208 427q-7 56 -11 102q-2 19 -3.5 38t-3.5 34l-2 26q-1 11 -1 14q0 15 10.5 25.5t25.5 10.5 q16 0 26 -10.5t10 -25.5q0 -3 -1 -14l-2 -26l-4 -34l-4 -38q-4 -46 -10 -102h-30z" />
<glyph unicode="#" horiz-adv-x="579" d="M236 0l64 186h-118l-63 -186h-47l63 186h-111l13 41h112l71 213h-113l12 41h115l61 186h47l-61 -186h117l61 186h48l-63 -186h111l-11 -41h-113l-72 -213h116l-13 -41h-116l-62 -186h-48zM384 440h-117l-71 -213h116z" />
<glyph unicode="$" horiz-adv-x="584" d="M273 -11q-76 4 -132.5 32.5t-92.5 72.5l37 43q30 -35 77 -63t111 -33v280q-38 11 -75 23.5t-65.5 32.5t-46 49.5t-17.5 73.5q0 39 16 71t43.5 55t64.5 36t80 15v91h46v-91q63 -5 111.5 -29.5t83.5 -63.5l-38 -42q-31 37 -71 57t-86 25v-252q39 -11 76.5 -25t67 -35.5 t48 -54t18.5 -80.5q0 -31 -10.5 -62.5t-35 -58.5t-65 -45t-99.5 -22v-89h-46v89zM469 173q0 30 -12 51.5t-32.5 37t-48 26.5t-57.5 20v-267q43 3 72 16.5t46 32.5t24.5 41t7.5 42zM129 503q0 -26 11.5 -45t31 -32.5t46 -23t55.5 -17.5v240q-31 -2 -57.5 -11.5t-45.5 -25.5 t-30 -38t-11 -47z" />
<glyph unicode="%" horiz-adv-x="720" d="M190 349q-35 0 -63.5 12.5t-49 34t-32 51.5t-11.5 65t11.5 65.5t32 52.5t49 34.5t63.5 12.5t64 -12.5t49.5 -34.5t32 -52.5t11.5 -65.5t-11.5 -65t-32 -51.5t-49.5 -34t-64 -12.5zM128 0l426 667h46l-427 -667h-45zM530 -12q-35 0 -63.5 12.5t-49.5 34t-32.5 51.5 t-11.5 65t11.5 65.5t32.5 52.5t49.5 34.5t63.5 12.5q34 0 63 -12.5t50 -34.5t32.5 -52.5t11.5 -65.5t-11.5 -65t-32.5 -51.5t-50 -34t-63 -12.5zM190 388q25 0 45.5 10t35 27t22.5 39.5t8 47.5q0 26 -8 49t-22.5 40t-35 27t-45.5 10q-24 0 -44.5 -10t-35 -27t-22.5 -40 t-8 -49q0 -25 8 -47.5t22.5 -39.5t35 -27t44.5 -10zM530 27q25 0 45 10t34.5 26.5t22.5 39t8 48.5t-8 49t-22.5 40t-34.5 27t-45 10t-45.5 -10t-35 -27t-22.5 -40t-8 -49t8 -48.5t22.5 -39t35 -26.5t45.5 -10z" />
<glyph unicode="&#x26;" horiz-adv-x="639" d="M524 0l-40 36l-45 44q-36 -41 -84 -66.5t-112 -25.5q-41 0 -77.5 11.5t-64 34.5t-43.5 57t-16 79q0 40 12.5 70.5t33 54.5t47.5 42.5t56 34.5q-25 39 -40 78t-15 75q0 33 12.5 61t34 48t50.5 31.5t62 11.5q62 0 101 -32.5t39 -93.5q0 -38 -15 -66t-39.5 -50t-55.5 -40 l-63 -35q22 -31 45 -58l41 -47l45 -50l44 -47q30 45 49 90t27 72l48 -20q-16 -40 -37 -87t-51 -91l61 -59l68 -63h-78zM247 34q49 0 88 23t70 58l-58 61q-27 28 -41 46l-46 55q-23 28 -44 58q-24 -14 -45 -30t-37 -35.5t-25 -43t-9 -53.5q0 -34 12 -60t32.5 -43.5t47 -26.5 t55.5 -9zM192 524q0 -29 13 -62t33 -65l55 30q26 15 46 33t32 39.5t12 49.5q0 42 -25 63t-62 21q-21 0 -40 -8t-33.5 -22.5t-22.5 -34.5t-8 -44z" />
<glyph unicode="'" horiz-adv-x="187" d="M79 427q-7 56 -11 102q-2 19 -3.5 38t-3.5 35l-2 26q-1 10 -1 13q0 15 10 25.5t26 10.5q15 0 25.5 -10.5t10.5 -25.5q0 -3 -1 -13l-3 -26l-3 -35l-4 -38q-4 -46 -10 -102h-30z" />
<glyph unicode="(" horiz-adv-x="227" d="M179 -199q-65 98 -99.5 209.5t-34.5 232.5t34.5 232.5t99.5 209.5l31 -22q-24 -48 -43.5 -95.5t-33.5 -97.5t-21.5 -106t-7.5 -121t7.5 -120.5t21.5 -106t33.5 -97t43.5 -94.5z" />
<glyph unicode=")" horiz-adv-x="227" d="M17 -175q24 48 43.5 94.5t33.5 97t21.5 106t7.5 120.5t-7.5 121t-21.5 106t-33.5 97.5t-43.5 95.5l31 22q65 -98 99.5 -209.5t34.5 -232.5t-34.5 -232.5t-99.5 -209.5z" />
<glyph unicode="*" horiz-adv-x="335" d="M149 399l5 117l-98 -64l-19 33l104 53l-104 53l19 33l98 -64l-5 117h37l-6 -117l99 64l19 -33l-105 -53l105 -53l-19 -33l-99 64l6 -117h-37z" />
<glyph unicode="+" horiz-adv-x="496" d="M271 316v-217h-45v217h-197v42h197v211h45v-211h196v-42h-196z" />
<glyph unicode="," horiz-adv-x="219" d="M159 14q0 -42 -21.5 -79t-50.5 -57l-29 24q24 17 40 43t18 49q-2 -1 -4 -1h-6q-18 0 -29.5 12t-11.5 30q0 17 12.5 30t30.5 13q20 0 35.5 -16.5t15.5 -47.5z" />
<glyph unicode="-" horiz-adv-x="300" d="M30 218v48h240v-48h-240z" />
<glyph unicode="." horiz-adv-x="219" d="M110 -9q-18 0 -31.5 13t-13.5 31q0 17 13.5 30t31.5 13t31 -13t13 -30q0 -18 -13 -31t-31 -13z" />
<glyph unicode="/" horiz-adv-x="282" d="M0 -20l237 707h45l-237 -707h-45z" />
<glyph unicode="0" horiz-adv-x="608" d="M305 -12q-68 0 -115 31.5t-76 81.5t-42.5 111.5t-13.5 120.5q0 60 13.5 121t42.5 110.5t76 81t115 31.5q67 0 113.5 -31.5t76 -81t43 -110.5t13.5 -121q0 -59 -13.5 -120.5t-43 -111.5t-76 -81.5t-113.5 -31.5zM305 40q52 0 87.5 26.5t57 68.5t31 94.5t9.5 103.5 q0 52 -9 104t-31 94t-57.5 68t-87.5 26q-53 0 -89 -26t-57.5 -68t-31 -94t-9.5 -104q0 -51 9.5 -103.5t31 -94.5t57.5 -68.5t89 -26.5z" />
<glyph unicode="1" horiz-adv-x="308" d="M168 0v589l-107 -114l-35 37l147 155h52v-667h-57z" />
<glyph unicode="2" horiz-adv-x="582" d="M56 0v47l155 129q70 59 119.5 112.5t77 103t27.5 97.5q0 36 -13.5 61.5t-35 42t-49 24.5t-54.5 8q-63 0 -109.5 -24.5t-73.5 -62.5l-39 36q35 48 93 75.5t129 27.5q37 0 74.5 -11t67.5 -33.5t49 -58.5t19 -85q0 -55 -27 -108.5t-74.5 -107t-111.5 -108.5l-135 -113h351 v-52h-440z" />
<glyph unicode="3" horiz-adv-x="544" d="M259 -12q-41 0 -76 9t-63.5 24t-50.5 35t-37 43l39 34q28 -40 75.5 -66.5t111.5 -26.5q78 0 123 38t45 104q0 36 -14 61.5t-38 42t-57 24.5t-70 8q-20 0 -37 -0.5t-25 -1.5v54q8 -1 25 -1h37q33 0 64 7.5t54 23t37 39.5t14 57q0 31 -13 55t-35 40.5t-51 25t-61 8.5 q-57 0 -99.5 -21.5t-79.5 -63.5l-36 36q35 43 90 72t128 29q43 0 82.5 -11.5t68.5 -34t46.5 -55.5t17.5 -75q0 -38 -14.5 -66t-36 -46.5t-46.5 -29t-46 -14.5q22 -2 48.5 -13t49.5 -31t39 -50.5t16 -71.5t-15 -76t-44 -60.5t-71 -40t-95 -14.5z" />
<glyph unicode="4" horiz-adv-x="541" d="M351 0v182h-316v51l296 434h77v-433h98v-52h-98v-182h-57zM351 610l-257 -376h257v376z" />
<glyph unicode="5" horiz-adv-x="582" d="M299 -12q-84 0 -137 29.5t-88 79.5l38 38q32 -46 77 -70.5t110 -24.5q36 0 67 12.5t53 34t34.5 51t12.5 63.5q0 38 -12.5 68t-34.5 51t-52.5 32.5t-66.5 11.5q-46 0 -85.5 -15.5t-76.5 -49.5l-43 18v350h385v-52h-328v-261q25 24 66 43t93 19q42 0 80.5 -13.5t68 -40.5 t47 -67t17.5 -92q0 -50 -18 -90t-48.5 -67.5t-71.5 -42.5t-87 -15z" />
<glyph unicode="6" horiz-adv-x="584" d="M303 -12q-68 0 -114.5 28.5t-75.5 76.5t-42 110.5t-13 129.5q0 64 14 126t45 110.5t79 78t117 29.5q65 0 107.5 -24t72.5 -61l-33 -41q-25 32 -58.5 53t-88.5 21q-54 0 -91.5 -26t-61 -67.5t-34 -94t-10.5 -105.5v-15q0 -8 1 -16q10 17 29.5 36.5t45 36t56 27.5t64.5 11 q45 0 84 -13t68.5 -39.5t46 -66t16.5 -92.5q0 -41 -15 -79.5t-43.5 -68t-70 -47.5t-95.5 -18zM301 40q43 0 74.5 15t52.5 38t31 51.5t10 55.5q0 41 -12.5 71t-35 50t-53 30t-66.5 10q-55 0 -104 -31.5t-78 -82.5q3 -34 14 -70.5t32.5 -67t54.5 -50t80 -19.5z" />
<glyph unicode="7" horiz-adv-x="502" d="M122 0l280 615h-369v52h437v-40l-285 -627h-63z" />
<glyph unicode="8" d="M286 -12q-48 0 -89.5 12.5t-72 36t-48 56.5t-17.5 74q0 35 14 63.5t37 51t53 38t62 24.5q-30 8 -57.5 21.5t-49.5 33.5t-35 46.5t-13 59.5q0 44 19 76.5t49.5 53.5t69.5 31.5t78 10.5t77.5 -10.5t69.5 -31.5t50 -53.5t19 -76.5q0 -33 -13 -59.5t-35 -46.5t-49.5 -33.5 t-57.5 -21.5q32 -9 62 -24.5t53 -38t37 -51t14 -63.5q0 -41 -17.5 -74t-48 -56t-72 -36t-89.5 -13zM286 368q15 3 42 11t52.5 23t44.5 38.5t19 58.5q0 30 -12.5 53.5t-34 39.5t-50 24.5t-61.5 8.5t-61.5 -8.5t-50 -24.5t-34 -39.5t-12.5 -53.5q0 -35 19 -58.5t45 -38.5 t52.5 -23t41.5 -11zM286 40q33 0 63.5 9t54 26t37.5 41.5t14 54.5q0 38 -21 65t-48.5 44.5t-56 26.5t-43.5 11q-15 -2 -43.5 -11t-56.5 -26.5t-48.5 -44.5t-20.5 -65q0 -30 14 -54.5t37 -41.5t54 -26t64 -9z" />
<glyph unicode="9" horiz-adv-x="584" d="M271 -11q-65 0 -107.5 23.5t-72.5 61.5l34 41q25 -32 58 -53t88 -21t92.5 26t61 68t33.5 94t10 105v31q-11 -17 -30 -36.5t-44.5 -36t-56.5 -27.5t-65 -11q-45 0 -84 13t-68.5 39t-46 66t-16.5 93q0 41 15 79.5t43.5 68t70.5 47.5t95 18q67 0 114 -28.5t76 -76.5 t42 -110.5t13 -129.5q0 -64 -14 -126t-44.5 -110.5t-79 -78t-117.5 -29.5zM282 305q55 0 104 31.5t78 82.5q-3 34 -14 70.5t-32.5 67t-54.5 50t-80 19.5q-43 0 -74.5 -15t-52.5 -38t-31 -51.5t-10 -55.5q0 -41 12.5 -71t35 -50t53 -30t66.5 -10z" />
<glyph unicode=":" horiz-adv-x="217" d="M110 403q-18 0 -31.5 13t-13.5 30q0 18 13.5 31t31.5 13t31 -13t13 -31q0 -17 -13 -30t-31 -13zM110 -9q-18 0 -31.5 13t-13.5 31q0 17 13.5 30t31.5 13t31 -13t13 -30q0 -18 -13 -31t-31 -13z" />
<glyph unicode=";" horiz-adv-x="219" d="M110 403q-18 0 -31.5 13t-13.5 30q0 18 13.5 31t31.5 13t31 -13t13 -31q0 -17 -13 -30t-31 -13zM159 14q0 -41 -21.5 -78t-50.5 -57l-29 24q24 17 40 43t18 49q-2 -1 -4 -1h-6q-18 0 -29.5 12t-11.5 30q0 17 12.5 30t30.5 13q20 0 35.5 -16.5t15.5 -48.5z" />
<glyph unicode="&#x3c;" horiz-adv-x="496" d="M29 316v37l438 227v-49l-385 -197l385 -195v-49z" />
<glyph unicode="=" horiz-adv-x="496" d="M29 411v42h438v-42h-438zM29 216v41h438v-41h-438z" />
<glyph unicode="&#x3e;" horiz-adv-x="496" d="M29 90v49l386 195l-386 197v49l438 -227v-37z" />
<glyph unicode="?" horiz-adv-x="464" d="M214 176q-22 18 -31.5 38t-9.5 41q0 33 14.5 56.5t36 42.5t47 35t47 34.5t36 40.5t14.5 53q0 22 -8.5 41.5t-25.5 34.5t-42 23.5t-58 8.5q-65 0 -105.5 -24.5t-70.5 -65.5l-36 37q35 48 88 76.5t127 28.5q45 0 80.5 -12.5t60 -33.5t37.5 -49t13 -59q0 -38 -15 -66 t-38 -49t-49 -39l-49 -34q-23 -17 -38 -37t-15 -46q0 -11 8 -25.5t22 -25.5zM223 -9q-18 0 -31 13t-13 31q0 17 13 30t31 13t31 -13t13 -30q0 -18 -13 -31t-31 -13z" />
<glyph unicode="@" horiz-adv-x="783" d="M352 -70q-68 0 -126 24t-100.5 66.5t-66.5 100t-24 123.5q0 81 33 153t87.5 125.5t126.5 84.5t150 31q70 0 128.5 -25t99.5 -68.5t64 -102.5t23 -126q0 -57 -13.5 -100t-36 -72t-52 -44t-60.5 -15q-41 0 -64 26t-24 59l-1 6q-26 -37 -69.5 -64t-94.5 -27q-69 0 -111 43.5 t-42 116.5q0 54 20.5 100.5t54.5 81t76.5 54t87.5 19.5q51 0 83.5 -25t46.5 -58l13 65h49l-59 -282q-1 -5 -1.5 -9.5t-0.5 -9.5q0 -26 15 -40.5t35 -14.5q15 0 35 9t38 31t30.5 58.5t12.5 92.5q0 62 -21 115t-58.5 91.5t-90 60.5t-116.5 22q-73 0 -139 -30t-115.5 -80 t-78.5 -115.5t-29 -135.5q0 -60 21.5 -112t60 -90.5t91.5 -60t116 -21.5q55 0 100.5 15.5t86.5 41.5l17 -25q-47 -30 -99.5 -46.5t-108.5 -16.5zM342 127q28 0 52.5 9t45.5 23.5t37.5 32t28.5 35.5l32 148q-5 13 -14 27.5t-23 27t-33 20.5t-44 8q-40 0 -75 -18t-61.5 -47.5 t-41.5 -67.5t-15 -78q0 -52 29 -86t82 -34z" />
<glyph unicode="A" horiz-adv-x="647" d="M566 0l-66 164h-353l-66 -164h-66l273 667h71l273 -667h-66zM324 606l-158 -390h315z" />
<glyph unicode="B" horiz-adv-x="615" d="M83 0v667h274q85 0 134.5 -45.5t49.5 -124.5q0 -32 -10 -58t-26 -45.5t-37.5 -32.5t-43.5 -17q27 -4 50.5 -19t41 -37.5t28 -50t10.5 -57.5q0 -84 -50.5 -132t-140.5 -48h-280zM350 368q65 0 98 35.5t33 87.5q0 51 -33 87.5t-98 36.5h-210v-247h210zM354 52 q66 0 103 35.5t37 96.5q0 25 -9 49t-26.5 42.5t-43.5 29.5t-61 11h-214v-264h214z" />
<glyph unicode="C" horiz-adv-x="671" d="M396 -12q-71 0 -132.5 25t-107.5 70.5t-72 109t-26 140.5t26 140.5t72 109t107.5 70.5t132.5 25q80 0 140.5 -32t102.5 -86l-48 -31q-32 44 -83.5 70.5t-111.5 26.5q-59 0 -109.5 -21.5t-88 -60t-59 -92.5t-21.5 -119t21.5 -118.5t59 -92.5t88 -60.5t109.5 -21.5 q60 0 111.5 26.5t83.5 70.5l49 -30q-45 -55 -104.5 -87t-139.5 -32z" />
<glyph unicode="D" horiz-adv-x="692" d="M83 0v667h213q78 0 140 -26.5t106 -72t67.5 -106t23.5 -129.5t-23.5 -130t-67.5 -106t-106 -71t-140 -26h-213zM296 52q66 0 117.5 22t87 60t54 89t18.5 110q0 58 -18.5 109.5t-53.5 90t-87 60.5t-118 22h-156v-563h156z" />
<glyph unicode="E" horiz-adv-x="564" d="M83 0v667h423v-52h-366v-247h359v-52h-359v-264h366v-52h-423z" />
<glyph unicode="F" horiz-adv-x="542" d="M83 0v667h423v-52h-366v-247h359v-52h-359v-316h-57z" />
<glyph unicode="G" horiz-adv-x="711" d="M396 -13q-71 0 -132.5 25t-107 70.5t-72 109.5t-26.5 141t26.5 140.5t72 109t107 70.5t132.5 25q83 0 144 -30.5t107 -83.5l-43 -31q-35 42 -89.5 67.5t-118.5 25.5q-59 0 -109.5 -21.5t-88 -60t-59 -92.5t-21.5 -119t21.5 -119t59 -93t88 -60.5t109.5 -21.5q33 0 63 7.5 t55 19t44.5 26t33.5 28.5v160h-252v51h309v-233q-45 -50 -109.5 -80.5t-143.5 -30.5z" />
<glyph unicode="H" horiz-adv-x="703" d="M563 0v317h-423v-317h-57v667h57v-298h423v298h57v-667h-57z" />
<glyph unicode="I" horiz-adv-x="223" d="M83 0v667h57v-667h-57z" />
<glyph unicode="J" horiz-adv-x="470" d="M185 -12q-54 0 -96 19.5t-75 62.5l35 44q23 -30 54.5 -52t78.5 -22q69 0 108.5 42.5t39.5 110.5v474h57v-474q0 -52 -16 -90.5t-43.5 -64t-64 -38t-78.5 -12.5z" />
<glyph unicode="K" horiz-adv-x="586" d="M489 0l-275 314l-74 -81v-233h-57v667h57v-365l322 365h73l-284 -318l311 -349h-73z" />
<glyph unicode="L" horiz-adv-x="484" d="M69 0v667h58v-615h323v-52h-381z" />
<glyph unicode="M" horiz-adv-x="790" d="M649 0v595l-243 -595h-22l-244 595v-595h-57v667h85l227 -555l226 555h86v-667h-58z" />
<glyph unicode="N" horiz-adv-x="699" d="M560 0l-420 573v-573h-57v667h58l418 -565v565h57v-667h-56z" />
<glyph unicode="O" horiz-adv-x="764" d="M382 -12q-74 0 -133.5 26.5t-102 73t-65.5 109.5t-23 136t23 136t65.5 109.5t102 73t133.5 26.5q73 0 133 -26.5t102.5 -73t65.5 -109.5t23 -136t-23 -136t-65.5 -109.5t-102.5 -73t-133 -26.5zM382 40q60 0 108.5 22t83 61.5t53.5 93t19 116.5t-19 117t-53.5 93t-83 61 t-108.5 22t-109 -22t-83.5 -61t-53 -93t-18.5 -117t18.5 -116.5t53 -93t83.5 -61.5t109 -22z" />
<glyph unicode="P" d="M83 0v667h250q48 0 85.5 -15.5t63 -42.5t39 -62.5t13.5 -74.5t-13.5 -74.5t-39.5 -62.5t-63 -42.5t-85 -15.5h-193v-277h-57zM327 329q33 0 60.5 10.5t46.5 29.5t29.5 45.5t10.5 57.5q0 63 -40 103t-107 40h-187v-286h187z" />
<glyph unicode="Q" horiz-adv-x="764" d="M382 -12q-74 0 -133.5 26.5t-102 73t-65.5 109.5t-23 136t23 136t65.5 109.5t102 73t133.5 26.5q73 0 133 -26.5t102.5 -73t65.5 -109.5t23 -136q0 -76 -25 -140t-70 -111l70 -73l-39 -36l-71 73q-38 -28 -85.5 -43t-103.5 -15zM382 40q44 0 82 12t69 34l-103 107l40 37 l103 -108q35 40 54 93.5t19 117.5q0 63 -19 117t-53.5 93t-83 61t-108.5 22t-109 -22t-83.5 -61t-53 -93t-18.5 -117t18.5 -116.5t53 -93t83.5 -61.5t109 -22z" />
<glyph unicode="R" horiz-adv-x="594" d="M474 0l-187 276h-147v-276h-57v667h249q43 0 80 -13.5t64.5 -38.5t43 -61t15.5 -82q0 -45 -15 -80.5t-40 -59.5t-59 -37.5t-71 -14.5l193 -280h-69zM327 328q33 0 60.5 10.5t47 30t30 45.5t10.5 58q0 31 -10.5 57.5t-30 45.5t-47 29.5t-60.5 10.5h-187v-287h187z" />
<glyph unicode="S" horiz-adv-x="581" d="M290 -12q-83 0 -144.5 30t-99.5 76l37 43q16 -18 37 -35.5t47.5 -31t57.5 -22t67 -8.5q51 0 84.5 13t54 32.5t28.5 43t8 44.5q0 49 -29.5 76t-74 44t-96.5 29.5t-96.5 32.5t-74 53.5t-29.5 91.5q0 41 17 74t47 56t70 35.5t85 12.5q75 0 131.5 -24.5t94.5 -69.5l-38 -42 q-36 44 -85 64t-106 20q-33 0 -61.5 -9t-49.5 -25.5t-33 -39t-12 -49.5q0 -32 17 -53t45.5 -35t64.5 -25l73 -21q37 -11 73 -24.5t64.5 -35.5t45.5 -53.5t17 -78.5q0 -32 -11.5 -65.5t-39.5 -61t-73.5 -45t-112.5 -17.5z" />
<glyph unicode="T" horiz-adv-x="564" d="M253 0v615h-218v52h494v-52h-218v-615h-58z" />
<glyph unicode="U" horiz-adv-x="686" d="M343 -12q-64 0 -112.5 19t-81.5 53.5t-49.5 84t-16.5 111.5v411h58v-410q0 -102 51.5 -159.5t150.5 -57.5t150.5 57.5t51.5 159.5v410h58v-411q0 -124 -65.5 -196t-194.5 -72z" />
<glyph unicode="V" horiz-adv-x="647" d="M288 0l-273 667h66l243 -603l242 603h66l-273 -667h-71z" />
<glyph unicode="W" horiz-adv-x="867" d="M594 0l-160 573l-160 -573h-64l-191 667h64l161 -587l164 587h52l163 -587l161 587h64l-190 -667h-64z" />
<glyph unicode="X" horiz-adv-x="645" d="M555 0l-233 301l-232 -301h-71l268 342l-253 325h72l216 -283l217 283h72l-253 -324l268 -343h-71z" />
<glyph unicode="Y" horiz-adv-x="618" d="M280 0v285l-265 382h69l225 -328l225 328h69l-265 -382v-285h-58z" />
<glyph unicode="Z" horiz-adv-x="581" d="M50 0v50l402 565h-402v52h474v-49l-402 -566h409v-52h-481z" />
<glyph unicode="[" horiz-adv-x="228" d="M37 -190v868h174v-43h-130v-782h130v-43h-174z" />
<glyph unicode="\" horiz-adv-x="282" d="M0 687h45l237 -707h-45z" />
<glyph unicode="]" horiz-adv-x="228" d="M17 -190v43h130v782h-130v43h174v-868h-174z" />
<glyph unicode="^" horiz-adv-x="428" d="M361 333l-147 293l-147 -293h-48l174 334h42l174 -334h-48z" />
<glyph unicode="_" horiz-adv-x="564" d="M-3 -83v43h570v-43h-570z" />
<glyph unicode="`" horiz-adv-x="216" d="M172 556l-172 144h62l154 -144h-44z" />
<glyph unicode="a" horiz-adv-x="521" d="M388 0v57q-63 -69 -164 -69q-31 0 -61.5 10.5t-54.5 31t-38.5 50.5t-14.5 69t14.5 69t38.5 50.5t54 30.5t62 10q102 0 164 -69v98q0 27 -10 47.5t-27.5 35t-41 21.5t-50.5 7q-46 0 -82.5 -16.5t-69.5 -54.5l-29 36q38 41 82 61t104 20q37 0 69 -9t56 -28t37.5 -48.5 t13.5 -69.5v-340h-52zM242 29q44 0 82 16.5t64 49.5v106q-26 34 -64 50.5t-82 16.5q-60 0 -96 -34t-36 -86q0 -26 9.5 -47.5t27 -37.5t41.5 -25t54 -9z" />
<glyph unicode="b" d="M133 121q21 -35 64.5 -60.5t94.5 -25.5q40 0 71.5 15.5t53.5 43.5t33 65.5t11 81.5t-11 82t-33 65.5t-53.5 43.5t-71.5 16q-25 0 -49 -7.5t-45 -19.5t-38 -28t-27 -33v-239zM81 0v667h52v-262q29 42 73 66t95 24q48 0 88 -18t68.5 -51.5t44 -80.5t15.5 -104 q0 -58 -16 -105t-44.5 -80t-68 -50.5t-87.5 -17.5q-54 0 -98 25.5t-70 63.5v-77h-52z" />
<glyph unicode="c" horiz-adv-x="494" d="M288 -12q-53 0 -96.5 20t-74 54.5t-47 80.5t-16.5 99t16.5 99t47 80.5t74 54t96.5 19.5q63 0 102.5 -22.5t68.5 -59.5l-36 -32q-26 36 -59 51.5t-73 15.5q-42 0 -76 -16t-57.5 -43.5t-36 -65.5t-12.5 -81q0 -44 12.5 -81.5t36 -65.5t57.5 -44t76 -16q40 0 73 16t59 52 l36 -32q-29 -38 -68.5 -60.5t-102.5 -22.5z" />
<glyph unicode="d" d="M437 0v77q-26 -38 -70 -63.5t-98 -25.5q-48 0 -87.5 17.5t-68 50.5t-44 80t-15.5 105q0 57 15.5 104t44 80.5t68 51.5t87.5 18q52 0 95.5 -24t72.5 -66v262h53v-667h-53zM278 35q25 0 49.5 7t45 19t37 27.5t27.5 32.5v239q-11 18 -27.5 34t-37 28t-45 19t-49.5 7 q-40 0 -71.5 -16t-53 -43.5t-33 -65.5t-11.5 -82t11.5 -81.5t33 -65.5t53 -43.5t71.5 -15.5z" />
<glyph unicode="e" horiz-adv-x="567" d="M295 -12q-53 0 -97 18.5t-76 52.5t-50 80.5t-18 102.5q0 52 17.5 98.5t48.5 80.5t73.5 54t92.5 20q55 0 97.5 -20.5t71.5 -55t44 -81.5t15 -99v-14h-404q2 -39 15.5 -74t38 -61.5t58.5 -41.5t77 -15q46 0 86.5 17t71.5 50l27 -34q-36 -38 -82.5 -58t-106.5 -20zM461 266 q0 31 -10.5 63.5t-32.5 59.5t-55 44t-78 17q-43 0 -75 -17t-54 -43.5t-33.5 -59.5t-12.5 -64h351z" />
<glyph unicode="f" horiz-adv-x="265" d="M98 0v437h-80v46h80v44q0 71 35 110.5t96 39.5q26 0 47.5 -7t44.5 -27l-25 -38q-12 11 -27 18t-35 7q-42 0 -62.5 -27t-20.5 -76v-44h98v-46h-98v-437h-53z" />
<glyph unicode="g" horiz-adv-x="570" d="M273 -196q-31 0 -56.5 3t-48.5 11.5t-44 22.5t-42 36l30 42q32 -38 69 -53t92 -15q33 0 62.5 8.5t52 27t36 47.5t13.5 70v77q-26 -38 -70 -64.5t-98 -26.5q-48 0 -87.5 17.5t-68 50.5t-44 79.5t-15.5 104.5q0 57 15.5 104t44 80t68 51t87.5 18q52 0 95.5 -24t72.5 -66v78 h53v-479q0 -55 -17.5 -93t-47 -62t-69 -34.5t-83.5 -10.5zM278 37q25 0 49 7t45 19t37.5 28t27.5 34v235q-11 18 -27.5 34t-37.5 28t-45 19t-49 7q-40 0 -71.5 -15.5t-53 -43.5t-33 -65.5t-11.5 -81.5t11.5 -81.5t33 -65t53 -43t71.5 -15.5z" />
<glyph unicode="h" horiz-adv-x="540" d="M407 0v329q0 35 -8.5 58t-24 36.5t-37 19t-47.5 5.5q-23 0 -46 -7t-44 -18t-38 -26.5t-29 -31.5v-365h-52v667h52v-257q13 16 32 31t42 27t48.5 19.5t51.5 7.5q74 0 113 -36.5t39 -118.5v-340h-52z" />
<glyph unicode="i" horiz-adv-x="214" d="M107 559q-16 0 -28 11.5t-12 28.5t12 28t28 11q17 0 28.5 -11t11.5 -28t-11.5 -28.5t-28.5 -11.5zM81 0v483h52v-483h-52z" />
<glyph unicode="j" horiz-adv-x="214" d="M107 559q-16 0 -28 11.5t-12 28.5t12 28t28 11q17 0 28.5 -11t11.5 -28t-11.5 -28.5t-28.5 -11.5zM2 -196q-32 0 -54.5 9t-44.5 28l23 43q13 -13 30.5 -23t40.5 -10q35 0 59.5 20.5t24.5 67.5v544h52v-544q0 -68 -34 -101.5t-97 -33.5z" />
<glyph unicode="k" horiz-adv-x="505" d="M416 0l-193 230l-90 -85v-145h-52v667h52v-460l284 276h70l-225 -218l224 -265h-70z" />
<glyph unicode="l" horiz-adv-x="214" d="M81 0v667h52v-667h-52z" />
<glyph unicode="m" horiz-adv-x="789" d="M656 0v338q0 51 -23 80.5t-74 29.5q-20 0 -40 -6.5t-38.5 -18t-34 -26.5t-25.5 -31v-366h-53v338q0 51 -22.5 80.5t-73.5 29.5q-20 0 -40 -7t-38.5 -18t-34 -26.5t-26.5 -31.5v-365h-52v483h52v-73q7 12 22.5 26.5t36.5 27.5t46 22t51 9q28 0 49.5 -7.5t37.5 -20.5 t25.5 -29t14.5 -34q10 17 27 33.5t38 29t45 20.5t50 8q132 0 132 -147v-348h-52z" />
<glyph unicode="n" horiz-adv-x="540" d="M407 0v327q0 35 -8.5 58t-24 37t-37 20t-47.5 6q-23 0 -46 -7t-44 -18t-38 -26.5t-29 -31.5v-365h-52v483h52v-73q13 16 32 31t42 27t48.5 19.5t51.5 7.5q74 0 113 -37.5t39 -119.5v-338h-52z" />
<glyph unicode="o" d="M285 -12q-53 0 -95.5 20t-72.5 54.5t-46.5 80.5t-16.5 99t16.5 99t46.5 80.5t72.5 54t95.5 19.5q54 0 97 -19.5t73 -54t46.5 -80.5t16.5 -99t-16.5 -99t-46.5 -80.5t-73 -54.5t-97 -20zM285 35q43 0 76 17t55.5 46t34 66t11.5 78q0 40 -11.5 77.5t-34 66t-55.5 45.5 t-76 17q-42 0 -75 -17t-55.5 -45.5t-34 -66t-11.5 -77.5q0 -41 11.5 -78t34 -66t55.5 -46t75 -17z" />
<glyph unicode="p" horiz-adv-x="567" d="M301 -12q-51 0 -95 24t-73 66v-262h-52v667h52v-76q26 37 70 62.5t98 25.5q48 0 88 -17.5t68.5 -50.5t44 -80t15.5 -105t-15.5 -105t-44 -80t-68.5 -51t-88 -18zM292 35q40 0 71.5 16t53.5 43.5t33 65.5t11 82t-11 81.5t-33 65.5t-53.5 43.5t-71.5 15.5 q-51 0 -94.5 -25.5t-64.5 -60.5v-239q10 -17 27 -33t38 -28t45 -19.5t49 -7.5z" />
<glyph unicode="q" horiz-adv-x="567" d="M275 35q25 0 49 7.5t45 19.5t37.5 28t27.5 33v239q-21 35 -64.5 60.5t-94.5 25.5q-41 0 -72 -15.5t-53 -43.5t-33 -65.5t-11 -81.5t11 -82t33 -65.5t53 -43.5t72 -16zM266 -12q-48 0 -88 18t-68.5 51t-44 80t-15.5 105t15.5 105t44 80t68.5 50.5t88 17.5q54 0 98 -25.5 t70 -62.5v76h52v-667h-52v262q-29 -42 -73 -66t-95 -24z" />
<glyph unicode="r" horiz-adv-x="317" d="M81 0v483h52v-83q31 41 71.5 67t91.5 26v-57q-7 2 -13 2h-13q-18 0 -39 -7.5t-40 -19.5t-34.5 -27.5t-23.5 -31.5v-352h-52z" />
<glyph unicode="s" horiz-adv-x="459" d="M225 -12q-59 0 -104.5 18t-81.5 59l31 38q23 -29 64 -50t92 -21q61 0 95 28t34 70q0 33 -22.5 51t-56.5 29t-73.5 19.5t-73.5 23.5t-56.5 39.5t-22.5 68.5q0 28 11.5 52.5t33.5 42.5t54 28.5t73 10.5q63 0 105 -21t68 -50l-29 -37q-21 29 -58.5 46.5t-85.5 17.5 q-57 0 -88.5 -25t-31.5 -63q0 -30 22.5 -46t56.5 -26.5t73 -19.5t73 -25t56.5 -43t22.5 -73q0 -29 -11.5 -55t-34 -45.5t-56.5 -30.5t-79 -11z" />
<glyph unicode="t" horiz-adv-x="275" d="M186 -12q-48 0 -71.5 27.5t-23.5 77.5v344h-80v46h80v132h53v-132h98v-46h-98v-336q0 -29 12 -47.5t38 -18.5q17 0 31.5 7t22.5 16l20 -40q-14 -14 -33 -22t-49 -8z" />
<glyph unicode="u" horiz-adv-x="540" d="M407 0v71q-15 -17 -34 -32t-41.5 -26t-47.5 -18t-51 -7q-74 0 -113 36.5t-39 118.5v340h52v-328q0 -35 8.5 -58.5t24 -37t37 -19t47.5 -5.5q23 0 46 6.5t43.5 17.5t38 25.5t29.5 30.5v368h52v-483h-52z" />
<glyph unicode="v" horiz-adv-x="481" d="M211 0l-204 483h58l176 -422l174 422h59l-204 -483h-59z" />
<glyph unicode="w" horiz-adv-x="719" d="M495 0l-135 413l-136 -413h-50l-157 483h56l128 -410l136 410h45l136 -410l128 410h56l-157 -483h-50z" />
<glyph unicode="x" horiz-adv-x="479" d="M400 0l-160 213l-161 -213h-62l191 248l-180 235h62l150 -199l149 199h62l-180 -235l191 -248h-62z" />
<glyph unicode="y" horiz-adv-x="481" d="M58 -141q8 -4 20.5 -6t21.5 -2q24 0 41.5 12t32.5 47l38 86l-205 487h58l176 -422l174 422h59l-250 -589q-38 -90 -123 -90q-13 0 -27.5 2t-24.5 5z" />
<glyph unicode="z" horiz-adv-x="469" d="M56 0v43l286 394h-286v46h353v-42l-289 -395h293v-46h-357z" />
<glyph unicode="{" horiz-adv-x="249" d="M170 -190q-21 0 -41 8.5t-36 25t-25.5 39t-9.5 51.5v219q0 28 -13 49.5t-39 21.5v40q26 0 39 21.5t13 49.5v219q0 28 9.5 51t25.5 39t36 25t41 9h62v-43h-62q-27 0 -47.5 -22.5t-20.5 -58.5v-222q0 -32 -10 -54.5t-35 -33.5q25 -11 35 -33.5t10 -54.5v-222 q0 -35 20.5 -58t47.5 -23h62v-43h-62z" />
<glyph unicode="|" horiz-adv-x="208" d="M83 -20v707h43v-707h-43z" />
<glyph unicode="}" horiz-adv-x="249" d="M17 -147h62q27 0 47 23t20 58v222q0 32 10.5 54.5t34.5 33.5q-24 11 -34.5 33.5t-10.5 54.5v222q0 36 -20 58.5t-47 22.5h-62v43h62q21 0 41 -9t36 -25t25.5 -39t9.5 -51v-219q0 -28 13 -49.5t39 -21.5v-40q-26 0 -39 -21.5t-13 -49.5v-219q0 -29 -9.5 -51.5t-25.5 -39 t-36 -25t-41 -8.5h-62v43z" />
<glyph unicode="~" horiz-adv-x="499" d="M472 662q-5 -45 -13 -87.5t-23 -75t-39 -52t-59 -19.5q-31 0 -50 14.5t-31.5 36.5t-21 47t-18 47t-22.5 36.5t-34 14.5q-40 0 -61 -52.5t-29 -145.5l-43 7q4 45 12.5 87t23.5 74.5t38.5 51.5t58.5 19q31 0 50 -14.5t32 -36.5t21.5 -47.5t18 -47.5t22 -36.5t33.5 -14.5 q40 0 61 52.5t30 146.5z" />
<glyph unicode="&#xa1;" horiz-adv-x="219" d="M89 309h41l13 -493h-67zM65 449q0 17 13 30t31 13t31 -13t13 -30q0 -18 -13 -31t-31 -13t-31 13t-13 31z" />
<glyph unicode="&#xa2;" horiz-adv-x="494" d="M257 -10q-47 6 -84.5 27.5t-63.5 55t-40.5 77t-14.5 92.5t14.5 92t40.5 76.5t63.5 55t84.5 27.5v72h44v-70q57 -2 93.5 -24.5t64.5 -57.5l-36 -32q-25 34 -55.5 49.5t-66.5 17.5v-413q36 2 66.5 18t55.5 50l36 -32q-28 -36 -64.5 -58.5t-93.5 -24.5v-88h-44v90zM109 242 q0 -39 10 -73.5t29 -61.5t46.5 -45t62.5 -24v407q-35 -6 -62.5 -24t-46.5 -45t-29 -61t-10 -73z" />
<glyph unicode="&#xa3;" horiz-adv-x="504" d="M18 309h125l-31 34q-17 18 -30.5 39t-22.5 46t-9 57q0 39 16.5 73.5t45 61t68 42t86.5 15.5q62 0 112 -28.5t76 -79.5l-46 -29q-7 16 -20 31.5t-31 28t-40 20t-47 7.5q-32 0 -61 -9.5t-50.5 -28t-34.5 -45t-13 -60.5q0 -32 9.5 -56t23.5 -44t31 -38t31 -37h151v-42h-126 q5 -12 7.5 -25t2.5 -28q0 -50 -24 -83t-57 -57q11 4 25 6.5t29 2.5q25 0 43.5 -7t36 -15t35 -15t39.5 -7q34 0 61.5 13.5t38.5 27.5l27 -47q-21 -20 -53.5 -33.5t-75.5 -13.5q-34 0 -55 7.5t-38 16t-36 16t-50 7.5q-26 0 -56 -11.5t-62 -28.5l-22 48q71 31 106.5 74t35.5 91 q0 17 -4.5 32t-11.5 29h-155v42z" />
<glyph unicode="&#xa4;" horiz-adv-x="690" d="M417 -12q-60 0 -113.5 18t-96.5 51t-73.5 80t-44.5 105h-54v41h47q-3 24 -3 50t3 52h-47v41h55q14 57 44.5 103.5t73.5 79.5t96 51t113 18q80 0 140.5 -32t102.5 -86l-48 -31q-32 44 -83.5 70.5t-111.5 26.5q-48 0 -90.5 -14t-77 -40t-60 -63t-38.5 -83h326v-41h-334 q-4 -23 -4 -52q0 -26 3 -50h335v-41h-326q13 -46 38.5 -83t60 -63.5t77 -41t90.5 -14.5q60 0 111.5 26.5t83.5 70.5l49 -30q-45 -55 -104.5 -87t-139.5 -32z" />
<glyph unicode="&#xa5;" horiz-adv-x="618" d="M280 0v126h-258v41h258v118h-258v42h229l-236 340h69l225 -328l225 328h69l-236 -340h230v-42h-259v-118h259v-41h-259v-126h-58z" />
<glyph unicode="&#xa6;" horiz-adv-x="208" d="M83 -20v316h43v-316h-43zM83 371v316h43v-316h-43z" />
<glyph unicode="&#xa7;" horiz-adv-x="461" d="M406 310q0 -42 -24 -74.5t-72 -52.5q45 -17 70.5 -44.5t25.5 -76.5q0 -34 -13 -60.5t-37 -45t-57.5 -28t-73.5 -9.5q-36 0 -64.5 6.5t-50.5 17t-39 24.5t-32 29l31 36q22 -27 60 -49.5t95 -22.5t93.5 26.5t36.5 73.5q0 34 -22.5 52.5t-56.5 30t-73.5 20.5t-73.5 23.5 t-56.5 39.5t-22.5 68q0 27 10 48.5t26.5 37t39 26.5t47.5 17q-55 17 -89 44t-34 78q0 27 11 51t33 42t54 28.5t74 10.5q65 0 107 -22t65 -50l-28 -33q-26 33 -64.5 48.5t-78.5 15.5q-53 0 -87 -25t-34 -67q0 -31 22.5 -47.5t56.5 -26.5t73 -18.5t73 -24.5t56.5 -43t22.5 -74 zM354 307q0 24 -11 40.5t-29 28t-40.5 18.5t-44.5 13q-74 -19 -100.5 -46.5t-26.5 -63.5q0 -23 13.5 -38.5t35.5 -26.5t50.5 -19t59.5 -15q44 19 68.5 44.5t24.5 64.5z" />
<glyph unicode="&#xa8;" horiz-adv-x="262" d="M270 601q0 -15 -11 -26t-26 -11t-26 11t-11 26t11 26t26 11t26 -11t11 -26zM66 601q0 -15 -11 -26t-26 -11t-26 11t-11 26t11 26t26 11t26 -11t11 -26z" />
<glyph unicode="&#xa9;" horiz-adv-x="778" d="M734 334q0 -71 -27 -134t-74 -110t-109.5 -74t-134.5 -27q-71 0 -134 27t-110 74t-74 110t-27 134q0 72 27 134.5t74 109.5t110 74t134 27q72 0 134.5 -27t109.5 -74t74 -109.5t27 -134.5zM706 334q0 66 -25 123.5t-68 100.5t-100.5 68t-123.5 25q-65 0 -123 -25 t-101 -68t-68 -100.5t-25 -123.5q0 -65 25 -123t68 -101t101 -68t123 -25q66 0 123.5 25t100.5 68t68 101t25 123zM535 186q-27 -32 -62.5 -49t-82.5 -17q-43 0 -81 16.5t-66 45.5t-44.5 68.5t-16.5 85.5t16.5 85t44.5 67.5t66 44.5t81 16q47 0 83 -17t62 -48l-22 -22 q-20 26 -54 41.5t-69 15.5t-66.5 -13t-55.5 -37t-38.5 -58t-14.5 -76q0 -40 14.5 -74t38.5 -58.5t55.5 -38.5t66.5 -14q36 0 69.5 16t53.5 42z" />
<glyph unicode="&#xaa;" horiz-adv-x="375" d="M268 326v37q-42 -45 -110 -45q-21 0 -41 7t-36 20.5t-25.5 33t-9.5 44.5t9.5 44.5t25.5 32.5t36 19.5t41 6.5q68 0 110 -44v61q0 35 -26 52.5t-59 17.5q-26 0 -53 -11t-47 -37l-22 28q26 28 56.5 41.5t70.5 13.5q25 0 47.5 -6t39 -18.5t26 -32.5t9.5 -48v-217h-42z M174 348q28 0 53 11t41 31v65q-16 20 -41 30.5t-53 10.5q-38 0 -61.5 -20.5t-23.5 -52.5q0 -33 23.5 -54t61.5 -21z" />
<glyph unicode="&#xab;" horiz-adv-x="402" d="M315 63l-160 180l160 177h57l-160 -177l160 -180h-57zM190 63l-160 180l160 177h57l-160 -177l160 -180h-57z" />
<glyph unicode="&#xac;" horiz-adv-x="499" d="M467 216h-43v195h-395v42h438v-237z" />
<glyph unicode="&#xae;" horiz-adv-x="494" d="M459 465q0 -44 -16.5 -82.5t-45 -67.5t-67.5 -45.5t-83 -16.5t-82.5 16.5t-67.5 45.5t-45.5 67.5t-16.5 82.5t16.5 83t45.5 67.5t67.5 45t82.5 16.5t83 -16.5t67.5 -45t45 -67.5t16.5 -83zM432 465q0 39 -14.5 72.5t-39.5 58.5t-59 39.5t-72 14.5t-72 -14.5t-59 -39.5 t-39.5 -58.5t-14.5 -72.5q0 -38 14.5 -71.5t39.5 -59t59 -40t72 -14.5t72 14.5t59 40t39.5 59t14.5 71.5zM306 343l-63 96h-46v-96h-30v243h99q31 0 53 -20t22 -54q0 -20 -7.5 -34t-18 -22.5t-21 -12t-15.5 -3.5l65 -97h-38zM310 512q0 20 -14 33t-30 13h-69v-90h69 q16 0 30 12.5t14 31.5z" />
<glyph unicode="&#xaf;" horiz-adv-x="363" d="M0 591v38h363v-38h-363z" />
<glyph unicode="&#xb0;" horiz-adv-x="282" d="M257 560q0 -24 -9 -45t-25 -36.5t-37.5 -24.5t-45.5 -9t-45 9t-36.5 24.5t-24.5 36.5t-9 45t9 45.5t24.5 37t36.5 25t45 9.5t45.5 -9.5t37.5 -25t25 -37t9 -45.5zM218 560q0 32 -23 55t-55 23t-54 -23t-22 -55t22 -54t54 -22t55 22t23 54z" />
<glyph unicode="&#xb1;" horiz-adv-x="496" d="M271 323v-218h-45v218h-197v41h197v212h45v-212h196v-41h-196zM29 0v41h438v-41h-438z" />
<glyph unicode="&#xb2;" horiz-adv-x="384" d="M52 421v35l98 73q43 34 73.5 65t47 59.5t16.5 56.5q0 21 -8 36t-21 24.5t-30 14t-34 4.5q-38 0 -67.5 -14.5t-45.5 -37.5l-27 28q23 30 61 46t80 16q24 0 48.5 -6.5t44 -20.5t31.5 -35.5t12 -52.5q0 -33 -16.5 -64.5t-45.5 -62.5t-67.5 -62.5t-83.5 -63.5h215v-38h-281z " />
<glyph unicode="&#xb3;" horiz-adv-x="384" d="M335 529q0 -51 -38.5 -83t-106.5 -32q-52 0 -89 19t-55 46l26 28q19 -25 49 -40t68 -15q47 0 73.5 21t26.5 57q0 43 -32.5 61t-77.5 18h-23q-10 0 -15 -1v38q5 -1 15 -1h23q43 0 73.5 16.5t30.5 56.5q0 35 -28.5 53t-67.5 18q-35 0 -61.5 -12t-49.5 -38l-25 27 q22 26 56.5 43.5t82.5 17.5q29 0 54 -7t44 -20.5t29.5 -33.5t10.5 -45q0 -23 -9 -39.5t-22 -28t-29 -17.5t-29 -8q13 -1 30 -7.5t31.5 -18.5t24.5 -30t10 -43z" />
<glyph unicode="&#xb4;" horiz-adv-x="216" d="M44 556h-44l154 144h62z" />
<glyph unicode="&#xb5;" horiz-adv-x="540" d="M81 -184v667h52v-328q0 -35 8.5 -58.5t24 -37.5t37 -20t47.5 -6q23 0 46 7t43.5 18t38 26t29.5 31v368h52v-483h-52v71q-15 -17 -34 -32t-41.5 -26t-47.5 -18t-51 -7q-63 0 -100 25v-197h-52z" />
<glyph unicode="&#xb6;" horiz-adv-x="449" d="M330 -100v729h-93v-729h-38v423q-36 0 -67 13.5t-54.5 37t-37 54.5t-13.5 67t13.5 67t37 54.5t54.5 37t67 13.5h169v-767h-38z" />
<glyph unicode="&#xb7;" horiz-adv-x="219" d="M154 245q0 -18 -13 -31t-31 -13t-31 13t-13 31q0 17 13 30t31 13t31 -13t13 -30z" />
<glyph unicode="&#xb8;" horiz-adv-x="198" d="M97 -189q-30 0 -56.5 8.5t-40.5 20.5l17 32q18 -15 38.5 -21.5t40.5 -6.5q26 0 45.5 12t19.5 33q0 18 -10 29t-30 11q-25 0 -41 -18l-27 16l30 84h38l-26 -67q16 11 37 11q29 0 47.5 -18t18.5 -48q0 -35 -29.5 -56.5t-71.5 -21.5z" />
<glyph unicode="&#xb9;" horiz-adv-x="214" d="M108 421v341l-64 -69l-27 29l97 99h40v-400h-46z" />
<glyph unicode="&#xba;" horiz-adv-x="405" d="M202 318q-36 0 -65 13t-49.5 35.5t-32 52.5t-11.5 64t11.5 64.5t32 52.5t49.5 35t65 13t65.5 -13t50.5 -35t32 -52.5t11 -64.5t-11 -64t-32 -52.5t-50.5 -35.5t-65.5 -13zM202 355q27 0 48.5 10t36.5 27.5t22.5 41t7.5 49.5t-7.5 49t-22.5 40.5t-36.5 27.5t-48.5 10 t-48 -10t-35.5 -27.5t-22 -40.5t-7.5 -49t7.5 -49.5t22 -41t35.5 -27.5t48 -10z" />
<glyph unicode="&#xbb;" horiz-adv-x="402" d="M87 63h-57l160 180l-160 177h57l160 -177zM212 63h-57l160 180l-160 177h57l160 -177z" />
<glyph unicode="&#xbc;" horiz-adv-x="742" d="M141 0h-45l426 667h46zM641 107v-107h-44v107h-196v35l179 258h61v-256h60v-37h-60zM597 359l-150 -215h150v215zM108 267v341l-64 -69l-27 29l97 99h40v-400h-46z" />
<glyph unicode="&#xbd;" horiz-adv-x="781" d="M141 0h-45l426 667h46zM449 0v35l98 73q43 34 73.5 65t47 59.5t16.5 56.5q0 21 -8 36t-21 24.5t-30 14t-34 4.5q-38 0 -67.5 -14.5t-45.5 -37.5l-27 28q23 30 61 46t80 16q24 0 48.5 -6.5t44 -20.5t31.5 -35.5t12 -52.5q0 -33 -16.5 -64.5t-45.5 -62.5t-67.5 -62.5 t-83.5 -63.5h215v-38h-281zM108 267v341l-64 -69l-27 29l97 99h40v-400h-46z" />
<glyph unicode="&#xbe;" horiz-adv-x="859" d="M258 0h-45l426 667h46zM758 107v-107h-44v107h-196v35l179 258h61v-256h60v-37h-60zM714 359l-150 -215h150v215zM335 375q0 -51 -38.5 -83t-106.5 -32q-52 0 -89 19t-55 46l26 28q19 -25 49 -40t68 -15q47 0 73.5 21t26.5 57q0 43 -32.5 61t-77.5 18h-23q-10 0 -15 -1 v38q5 -1 15 -1h23q43 0 73.5 16.5t30.5 56.5q0 35 -28.5 53t-67.5 18q-35 0 -61.5 -12t-49.5 -38l-25 27q22 26 56.5 43.5t82.5 17.5q29 0 54 -7t44 -20.5t29.5 -33.5t10.5 -45q0 -23 -9 -39.5t-22 -28t-29 -17.5t-29 -8q13 -1 30 -7.5t31.5 -18.5t24.5 -30t10 -43z" />
<glyph unicode="&#xbf;" horiz-adv-x="392" d="M250 304q23 -18 32.5 -38t9.5 -41q0 -33 -14.5 -56.5t-36.5 -42.5t-47 -35t-47 -34.5t-36.5 -40.5t-14.5 -53q0 -44 34.5 -75.5t100.5 -31.5q65 0 105.5 24t69.5 65l36 -37q-35 -48 -87.5 -76.5t-127.5 -28.5q-45 0 -80.5 12.5t-60 33.5t-37.5 49t-13 60q0 38 15 66 t38 49t49 39l49 34q23 17 38 37t15 46q0 11 -7.5 25t-22.5 25zM242 492q18 0 31 -13t13 -31q0 -17 -13 -30t-31 -13t-31.5 13t-13.5 30q0 18 13.5 31t31.5 13z" />
<glyph unicode="&#xc0;" horiz-adv-x="647" d="M340 728l-172 144h62l154 -144h-44zM566 0l-66 164h-353l-66 -164h-66l273 667h71l273 -667h-66zM324 606l-158 -390h315z" />
<glyph unicode="&#xc1;" horiz-adv-x="647" d="M309 728h-44l154 144h62zM566 0l-66 164h-353l-66 -164h-66l273 667h71l273 -667h-66zM324 606l-158 -390h315z" />
<glyph unicode="&#xc2;" horiz-adv-x="647" d="M410 728l-86 113l-84 -113h-40l97 144h54l99 -144h-40zM566 0l-66 164h-353l-66 -164h-66l273 667h71l273 -667h-66zM324 606l-158 -390h315z" />
<glyph unicode="&#xc3;" horiz-adv-x="647" d="M385 726q-28 0 -43.5 16t-27 35t-23 35t-31.5 16q-23 0 -38.5 -22.5t-15.5 -73.5h-35q0 28 6 52.5t18 42.5t29 28.5t40 10.5q28 0 43.5 -16t27 -35t23 -35t31.5 -16q23 0 38.5 22.5t15.5 73.5h35q0 -28 -6 -52.5t-17.5 -42.5t-29 -28.5t-40.5 -10.5zM566 0l-66 164h-353 l-66 -164h-66l273 667h71l273 -667h-66zM324 606l-158 -390h315z" />
<glyph unicode="&#xc4;" horiz-adv-x="647" d="M463 769q0 -15 -11 -26t-26 -11t-26 11t-11 26t11 26t26 11t26 -11t11 -26zM259 769q0 -15 -11 -26t-26 -11t-26 11t-11 26t11 26t26 11t26 -11t11 -26zM566 0l-66 164h-353l-66 -164h-66l273 667h71l273 -667h-66zM324 606l-158 -390h315z" />
<glyph unicode="&#xc5;" horiz-adv-x="647" d="M325 692q-20 0 -37.5 7.5t-30.5 21t-20.5 30.5t-7.5 37q0 40 28 68t68 28q19 0 36.5 -7.5t30.5 -20.5t20.5 -30.5t7.5 -37.5t-7.5 -37t-20.5 -30.5t-30.5 -21t-36.5 -7.5zM325 724q26 0 44.5 19t18.5 45t-18.5 45t-44.5 19t-45 -19t-19 -45t19 -45t45 -19zM566 0l-66 164 h-353l-66 -164h-66l273 667h71l273 -667h-66zM324 606l-158 -390h315z" />
<glyph unicode="&#xc6;" horiz-adv-x="939" d="M456 0v164h-274l-102 -164h-66l421 667h444v-52h-365v-247h358v-52h-358v-264h365v-52h-423zM456 606l-245 -390h245v390z" />
<glyph unicode="&#xc7;" horiz-adv-x="671" d="M390 -185q-30 0 -56.5 8.5t-40.5 20.5l17 32q18 -15 38.5 -21.5t40.5 -6.5q26 0 45.5 12t19.5 33q0 18 -10 29t-30 11q-25 0 -41 -18l-27 16l21 58q-66 5 -122.5 32t-98 72t-65 106t-23.5 134q0 77 26 140.5t72 109t107.5 70.5t132.5 25q80 0 140.5 -32t102.5 -86 l-48 -31q-32 44 -83.5 70.5t-111.5 26.5q-59 0 -109.5 -21.5t-88 -60t-59 -92.5t-21.5 -119t21.5 -118.5t59 -92.5t88 -60.5t109.5 -21.5q60 0 111.5 26.5t83.5 70.5l49 -30q-45 -54 -102.5 -85.5t-134.5 -33.5l-15 -40q16 11 37 11q29 0 47.5 -18t18.5 -48 q0 -35 -29.5 -56.5t-71.5 -21.5z" />
<glyph unicode="&#xc8;" horiz-adv-x="564" d="M310 728l-172 144h62l154 -144h-44zM83 0v667h423v-52h-366v-247h359v-52h-359v-264h366v-52h-423z" />
<glyph unicode="&#xc9;" horiz-adv-x="564" d="M279 728h-44l154 144h62zM83 0v667h423v-52h-366v-247h359v-52h-359v-264h366v-52h-423z" />
<glyph unicode="&#xca;" horiz-adv-x="564" d="M378 728l-86 113l-84 -113h-40l97 144h54l99 -144h-40zM83 0v667h423v-52h-366v-247h359v-52h-359v-264h366v-52h-423z" />
<glyph unicode="&#xcb;" horiz-adv-x="564" d="M432 769q0 -15 -11 -26t-26 -11t-26 11t-11 26t11 26t26 11t26 -11t11 -26zM228 769q0 -15 -11 -26t-26 -11t-26 11t-11 26t11 26t26 11t26 -11t11 -26zM83 0v667h423v-52h-366v-247h359v-52h-359v-264h366v-52h-423z" />
<glyph unicode="&#xcc;" horiz-adv-x="223" d="M128 728l-172 144h62l154 -144h-44zM83 0v667h57v-667h-57z" />
<glyph unicode="&#xcd;" horiz-adv-x="223" d="M97 728h-44l154 144h62zM83 0v667h57v-667h-57z" />
<glyph unicode="&#xce;" horiz-adv-x="223" d="M198 728l-86 113l-84 -113h-40l97 144h54l99 -144h-40zM83 0v667h57v-667h-57z" />
<glyph unicode="&#xcf;" horiz-adv-x="223" d="M251 769q0 -15 -11 -26t-26 -11t-26 11t-11 26t11 26t26 11t26 -11t11 -26zM47 769q0 -15 -11 -26t-26 -11t-26 11t-11 26t11 26t26 11t26 -11t11 -26zM83 0v667h57v-667h-57z" />
<glyph unicode="&#xd0;" horiz-adv-x="721" d="M112 0v308h-101v46h101v313h213q78 0 140 -26.5t106 -72t67.5 -106t23.5 -129.5t-23.5 -130t-67.5 -106t-106 -71t-140 -26h-213zM169 308v-256h156q66 0 117.5 22t87 60t54 89t18.5 110q0 58 -18.5 109.5t-53.5 90t-87 60.5t-118 22h-156v-261h180v-46h-180z" />
<glyph unicode="&#xd1;" horiz-adv-x="699" d="M408 726q-28 0 -43.5 16t-27 35t-23 35t-31.5 16q-23 0 -38.5 -22.5t-15.5 -73.5h-35q0 28 6 52.5t18 42.5t29 28.5t40 10.5q28 0 43.5 -16t27 -35t23 -35t31.5 -16q23 0 38.5 22.5t15.5 73.5h35q0 -28 -6 -52.5t-17.5 -42.5t-29 -28.5t-40.5 -10.5zM560 0l-420 573v-573 h-57v667h58l418 -565v565h57v-667h-56z" />
<glyph unicode="&#xd2;" horiz-adv-x="764" d="M402 728l-172 144h62l154 -144h-44zM382 -12q-74 0 -133.5 26.5t-102 73t-65.5 109.5t-23 136t23 136t65.5 109.5t102 73t133.5 26.5q73 0 133 -26.5t102.5 -73t65.5 -109.5t23 -136t-23 -136t-65.5 -109.5t-102.5 -73t-133 -26.5zM382 40q60 0 108.5 22t83 61.5t53.5 93 t19 116.5t-19 117t-53.5 93t-83 61t-108.5 22t-109 -22t-83.5 -61t-53 -93t-18.5 -117t18.5 -116.5t53 -93t83.5 -61.5t109 -22z" />
<glyph unicode="&#xd3;" horiz-adv-x="764" d="M368 728h-44l154 144h62zM382 -12q-74 0 -133.5 26.5t-102 73t-65.5 109.5t-23 136t23 136t65.5 109.5t102 73t133.5 26.5q73 0 133 -26.5t102.5 -73t65.5 -109.5t23 -136t-23 -136t-65.5 -109.5t-102.5 -73t-133 -26.5zM382 40q60 0 108.5 22t83 61.5t53.5 93t19 116.5 t-19 117t-53.5 93t-83 61t-108.5 22t-109 -22t-83.5 -61t-53 -93t-18.5 -117t18.5 -116.5t53 -93t83.5 -61.5t109 -22z" />
<glyph unicode="&#xd4;" horiz-adv-x="764" d="M469 728l-86 113l-84 -113h-40l97 144h54l99 -144h-40zM382 -12q-74 0 -133.5 26.5t-102 73t-65.5 109.5t-23 136t23 136t65.5 109.5t102 73t133.5 26.5q73 0 133 -26.5t102.5 -73t65.5 -109.5t23 -136t-23 -136t-65.5 -109.5t-102.5 -73t-133 -26.5zM382 40 q60 0 108.5 22t83 61.5t53.5 93t19 116.5t-19 117t-53.5 93t-83 61t-108.5 22t-109 -22t-83.5 -61t-53 -93t-18.5 -117t18.5 -116.5t53 -93t83.5 -61.5t109 -22z" />
<glyph unicode="&#xd5;" horiz-adv-x="764" d="M443 726q-28 0 -43.5 16t-27 35t-23 35t-31.5 16q-23 0 -38.5 -22.5t-15.5 -73.5h-35q0 28 6 52.5t18 42.5t29 28.5t40 10.5q28 0 43.5 -16t27 -35t23 -35t31.5 -16q23 0 38.5 22.5t15.5 73.5h35q0 -28 -6 -52.5t-17.5 -42.5t-29 -28.5t-40.5 -10.5zM382 -12 q-74 0 -133.5 26.5t-102 73t-65.5 109.5t-23 136t23 136t65.5 109.5t102 73t133.5 26.5q73 0 133 -26.5t102.5 -73t65.5 -109.5t23 -136t-23 -136t-65.5 -109.5t-102.5 -73t-133 -26.5zM382 40q60 0 108.5 22t83 61.5t53.5 93t19 116.5t-19 117t-53.5 93t-83 61t-108.5 22 t-109 -22t-83.5 -61t-53 -93t-18.5 -117t18.5 -116.5t53 -93t83.5 -61.5t109 -22z" />
<glyph unicode="&#xd6;" horiz-adv-x="764" d="M520 769q0 -15 -11 -26t-26 -11t-26 11t-11 26t11 26t26 11t26 -11t11 -26zM316 769q0 -15 -11 -26t-26 -11t-26 11t-11 26t11 26t26 11t26 -11t11 -26zM382 -12q-74 0 -133.5 26.5t-102 73t-65.5 109.5t-23 136t23 136t65.5 109.5t102 73t133.5 26.5q73 0 133 -26.5 t102.5 -73t65.5 -109.5t23 -136t-23 -136t-65.5 -109.5t-102.5 -73t-133 -26.5zM382 40q60 0 108.5 22t83 61.5t53.5 93t19 116.5t-19 117t-53.5 93t-83 61t-108.5 22t-109 -22t-83.5 -61t-53 -93t-18.5 -117t18.5 -116.5t53 -93t83.5 -61.5t109 -22z" />
<glyph unicode="&#xd7;" horiz-adv-x="496" d="M248 305l-151 -152l-30 29l152 152l-152 152l30 29l151 -152l152 152l29 -29l-152 -152l152 -152l-29 -29z" />
<glyph unicode="&#xd8;" horiz-adv-x="764" d="M382 -12q-48 0 -90 11.5t-78 32.5l-20 -32h-51l36 56q-58 47 -89.5 118.5t-31.5 158.5q0 73 23 136t65.5 109.5t102 73t133.5 26.5q47 0 88 -11.5t76 -31.5l20 32h52l-36 -56q59 -47 91.5 -118.5t32.5 -159.5q0 -73 -23 -136t-65.5 -109.5t-102.5 -73t-133 -26.5zM382 40 q60 0 108.5 22t83 61.5t53.5 93t19 116.5q0 73 -24.5 132.5t-69.5 98.5l-309 -486q29 -18 64 -28t75 -10zM118 333q0 -72 23.5 -131t67.5 -98l308 486q-59 36 -135 36q-60 0 -109 -22t-83.5 -61t-53 -93t-18.5 -117z" />
<glyph unicode="&#xd9;" horiz-adv-x="686" d="M361 728l-172 144h62l154 -144h-44zM343 -12q-64 0 -112.5 19t-81.5 53.5t-49.5 84t-16.5 111.5v411h58v-410q0 -102 51.5 -159.5t150.5 -57.5t150.5 57.5t51.5 159.5v410h58v-411q0 -124 -65.5 -196t-194.5 -72z" />
<glyph unicode="&#xda;" horiz-adv-x="686" d="M327 728h-44l154 144h62zM343 -12q-64 0 -112.5 19t-81.5 53.5t-49.5 84t-16.5 111.5v411h58v-410q0 -102 51.5 -159.5t150.5 -57.5t150.5 57.5t51.5 159.5v410h58v-411q0 -124 -65.5 -196t-194.5 -72z" />
<glyph unicode="&#xdb;" horiz-adv-x="686" d="M432 728l-86 113l-84 -113h-40l97 144h54l99 -144h-40zM343 -12q-64 0 -112.5 19t-81.5 53.5t-49.5 84t-16.5 111.5v411h58v-410q0 -102 51.5 -159.5t150.5 -57.5t150.5 57.5t51.5 159.5v410h58v-411q0 -124 -65.5 -196t-194.5 -72z" />
<glyph unicode="&#xdc;" horiz-adv-x="686" d="M483 769q0 -15 -11 -26t-26 -11t-26 11t-11 26t11 26t26 11t26 -11t11 -26zM279 769q0 -15 -11 -26t-26 -11t-26 11t-11 26t11 26t26 11t26 -11t11 -26zM343 -12q-64 0 -112.5 19t-81.5 53.5t-49.5 84t-16.5 111.5v411h58v-410q0 -102 51.5 -159.5t150.5 -57.5 t150.5 57.5t51.5 159.5v410h58v-411q0 -124 -65.5 -196t-194.5 -72z" />
<glyph unicode="&#xdd;" horiz-adv-x="618" d="M298 728h-44l154 144h62zM280 0v285l-265 382h69l225 -328l225 328h69l-265 -382v-285h-58z" />
<glyph unicode="&#xde;" d="M83 0v667h57v-124h193q48 0 85.5 -16t63 -43t39 -62.5t13.5 -74.5t-13.5 -74.5t-39.5 -62t-63 -42t-85 -15.5h-193v-153h-57zM327 205q33 0 60.5 10.5t46.5 29.5t29.5 45t10.5 57t-10.5 57.5t-29.5 46t-46.5 30t-60.5 10.5h-187v-286h187z" />
<glyph unicode="&#xdf;" horiz-adv-x="578" d="M557 131q0 -27 -10.5 -53t-32.5 -46t-56 -32t-80 -12q-36 0 -63.5 6.5t-49 17t-38 24.5t-31.5 29l31 38q22 -29 59.5 -50t91.5 -21q32 0 56 8.5t40 22t24 31t8 36.5q0 33 -22 51t-55.5 29.5t-72 20.5t-72 24t-55.5 39.5t-22 67.5q0 28 11.5 47.5t29 35t37.5 28.5l38 24 q17 12 28.5 26t11.5 32t-10 32t-25.5 23.5t-34.5 14.5t-38 5q-25 0 -47 -8.5t-38.5 -24t-26.5 -38t-10 -50.5v-509h-52v509q0 35 12.5 66t35 53.5t54.5 35.5t72 13q32 0 61 -8t51.5 -23.5t35.5 -37.5t13 -49t-11.5 -46t-29.5 -33.5t-38 -26t-38 -24.5t-29.5 -29t-11.5 -39 q0 -30 22 -46t55.5 -26t72 -18.5t72 -24t55.5 -42.5t22 -73z" />
<glyph unicode="&#xe0;" horiz-adv-x="521" d="M388 0v57q-63 -69 -164 -69q-31 0 -61.5 10.5t-54.5 31t-38.5 50.5t-14.5 69t14.5 69t38.5 50.5t54 30.5t62 10q102 0 164 -69v98q0 27 -10 47.5t-27.5 35t-41 21.5t-50.5 7q-46 0 -82.5 -16.5t-69.5 -54.5l-29 36q38 41 82 61t104 20q37 0 69 -9t56 -28t37.5 -48.5 t13.5 -69.5v-340h-52zM242 29q44 0 82 16.5t64 49.5v106q-26 34 -64 50.5t-82 16.5q-60 0 -96 -34t-36 -86q0 -26 9.5 -47.5t27 -37.5t41.5 -25t54 -9zM280 556l-172 144h62l154 -144h-44z" />
<glyph unicode="&#xe1;" horiz-adv-x="521" d="M388 0v57q-63 -69 -164 -69q-31 0 -61.5 10.5t-54.5 31t-38.5 50.5t-14.5 69t14.5 69t38.5 50.5t54 30.5t62 10q102 0 164 -69v98q0 27 -10 47.5t-27.5 35t-41 21.5t-50.5 7q-46 0 -82.5 -16.5t-69.5 -54.5l-29 36q38 41 82 61t104 20q37 0 69 -9t56 -28t37.5 -48.5 t13.5 -69.5v-340h-52zM242 29q44 0 82 16.5t64 49.5v106q-26 34 -64 50.5t-82 16.5q-60 0 -96 -34t-36 -86q0 -26 9.5 -47.5t27 -37.5t41.5 -25t54 -9zM248 556h-44l154 144h62z" />
<glyph unicode="&#xe2;" horiz-adv-x="521" d="M388 0v57q-63 -69 -164 -69q-31 0 -61.5 10.5t-54.5 31t-38.5 50.5t-14.5 69t14.5 69t38.5 50.5t54 30.5t62 10q102 0 164 -69v98q0 27 -10 47.5t-27.5 35t-41 21.5t-50.5 7q-46 0 -82.5 -16.5t-69.5 -54.5l-29 36q38 41 82 61t104 20q37 0 69 -9t56 -28t37.5 -48.5 t13.5 -69.5v-340h-52zM242 29q44 0 82 16.5t64 49.5v106q-26 34 -64 50.5t-82 16.5q-60 0 -96 -34t-36 -86q0 -26 9.5 -47.5t27 -37.5t41.5 -25t54 -9zM351 556l-86 113l-84 -113h-40l97 144h54l99 -144h-40z" />
<glyph unicode="&#xe3;" horiz-adv-x="521" d="M388 0v57q-63 -69 -164 -69q-31 0 -61.5 10.5t-54.5 31t-38.5 50.5t-14.5 69t14.5 69t38.5 50.5t54 30.5t62 10q102 0 164 -69v98q0 27 -10 47.5t-27.5 35t-41 21.5t-50.5 7q-46 0 -82.5 -16.5t-69.5 -54.5l-29 36q38 41 82 61t104 20q37 0 69 -9t56 -28t37.5 -48.5 t13.5 -69.5v-340h-52zM242 29q44 0 82 16.5t64 49.5v106q-26 34 -64 50.5t-82 16.5q-60 0 -96 -34t-36 -86q0 -26 9.5 -47.5t27 -37.5t41.5 -25t54 -9zM324 554q-28 0 -43.5 16t-27 35t-23 35t-31.5 16q-23 0 -38.5 -22.5t-15.5 -73.5h-35q0 28 6 52.5t18 42.5t29 28.5 t40 10.5q28 0 43.5 -16t27 -35t23 -35t31.5 -16q23 0 38.5 22.5t15.5 73.5h35q0 -28 -6 -52.5t-17.5 -42.5t-29 -28.5t-40.5 -10.5z" />
<glyph unicode="&#xe4;" horiz-adv-x="521" d="M388 0v57q-63 -69 -164 -69q-31 0 -61.5 10.5t-54.5 31t-38.5 50.5t-14.5 69t14.5 69t38.5 50.5t54 30.5t62 10q102 0 164 -69v98q0 27 -10 47.5t-27.5 35t-41 21.5t-50.5 7q-46 0 -82.5 -16.5t-69.5 -54.5l-29 36q38 41 82 61t104 20q37 0 69 -9t56 -28t37.5 -48.5 t13.5 -69.5v-340h-52zM242 29q44 0 82 16.5t64 49.5v106q-26 34 -64 50.5t-82 16.5q-60 0 -96 -34t-36 -86q0 -26 9.5 -47.5t27 -37.5t41.5 -25t54 -9zM401 601q0 -15 -11 -26t-26 -11t-26 11t-11 26t11 26t26 11t26 -11t11 -26zM197 601q0 -15 -11 -26t-26 -11t-26 11 t-11 26t11 26t26 11t26 -11t11 -26z" />
<glyph unicode="&#xe5;" horiz-adv-x="521" d="M388 0v57q-63 -69 -164 -69q-31 0 -61.5 10.5t-54.5 31t-38.5 50.5t-14.5 69t14.5 69t38.5 50.5t54 30.5t62 10q102 0 164 -69v98q0 27 -10 47.5t-27.5 35t-41 21.5t-50.5 7q-46 0 -82.5 -16.5t-69.5 -54.5l-29 36q38 41 82 61t104 20q37 0 69 -9t56 -28t37.5 -48.5 t13.5 -69.5v-340h-52zM242 29q44 0 82 16.5t64 49.5v106q-26 34 -64 50.5t-82 16.5q-60 0 -96 -34t-36 -86q0 -26 9.5 -47.5t27 -37.5t41.5 -25t54 -9zM264 550q-20 0 -37.5 7.5t-30.5 21t-20.5 30.5t-7.5 37q0 40 28 68t68 28q19 0 36.5 -7.5t30.5 -20.5t20.5 -30.5 t7.5 -37.5t-7.5 -37t-20.5 -30.5t-30.5 -21t-36.5 -7.5zM264 582q26 0 44.5 19t18.5 45t-18.5 45t-44.5 19t-45 -19t-19 -45t19 -45t45 -19z" />
<glyph unicode="&#xe6;" horiz-adv-x="897" d="M440 225q2 -39 15.5 -74t38 -61.5t58.5 -41.5t77 -15q46 0 86.5 17.5t71.5 49.5l27 -34q-36 -38 -82.5 -58t-106.5 -20q-74 0 -122 31t-77 75q-12 -19 -30 -38t-42 -34t-56 -24.5t-72 -9.5q-32 0 -62.5 10.5t-54.5 31t-39 50.5t-15 69t14.5 69t38 50t54 30.5t62.5 10.5 q101 0 164 -67v96q0 27 -10 47.5t-27.5 35t-41 21.5t-50.5 7q-46 0 -82.5 -16.5t-69.5 -54.5l-29 36q38 41 82 61t104 20q69 0 112 -29.5t51 -87.5q12 24 30 45t42 37t53.5 25.5t65.5 9.5q54 0 96.5 -20.5t71 -55t43.5 -81.5t15 -99v-14h-404zM791 266q0 31 -10.5 63.5 t-32 59.5t-55 44t-78.5 17q-42 0 -74.5 -17t-54 -43.5t-33.5 -59.5t-13 -64h351zM405 126q-6 11 -11.5 32.5t-5.5 41.5q-26 34 -64 51t-82 17q-30 0 -54 -9t-41.5 -25.5t-27 -38.5t-9.5 -47q0 -26 9.5 -47.5t27 -37.5t41.5 -25t54 -9q44 0 87.5 20t75.5 77z" />
<glyph unicode="&#xe7;" horiz-adv-x="494" d="M289 -187q-30 0 -56.5 8.5t-40.5 20.5l17 32q18 -15 38.5 -21.5t40.5 -6.5q26 0 45.5 12t19.5 33q0 18 -10 29t-30 11q-25 0 -41 -18l-27 16l21 60q-49 4 -88 25.5t-66.5 55t-42.5 78t-15 94.5q0 53 16.5 99t47 80.5t74 54t96.5 19.5q63 0 102.5 -22.5t68.5 -59.5 l-36 -32q-26 36 -59 51.5t-73 15.5q-42 0 -76 -16t-57.5 -43.5t-36 -65.5t-12.5 -81q0 -44 12.5 -81.5t36 -65.5t57.5 -44t76 -16q40 0 73 16t59 52l36 -32q-28 -35 -63.5 -57.5t-92.5 -25.5l-16 -42q16 11 37 11q29 0 47.5 -18t18.5 -48q0 -35 -29.5 -56.5t-71.5 -21.5z " />
<glyph unicode="&#xe8;" horiz-adv-x="567" d="M295 -12q-53 0 -97 18.5t-76 52.5t-50 80.5t-18 102.5q0 52 17.5 98.5t48.5 80.5t73.5 54t92.5 20q55 0 97.5 -20.5t71.5 -55t44 -81.5t15 -99v-14h-404q2 -39 15.5 -74t38 -61.5t58.5 -41.5t77 -15q46 0 86.5 17t71.5 50l27 -34q-36 -38 -82.5 -58t-106.5 -20zM461 266 q0 31 -10.5 63.5t-32.5 59.5t-55 44t-78 17q-43 0 -75 -17t-54 -43.5t-33.5 -59.5t-12.5 -64h351zM303 556l-172 144h62l154 -144h-44z" />
<glyph unicode="&#xe9;" horiz-adv-x="567" d="M295 -12q-53 0 -97 18.5t-76 52.5t-50 80.5t-18 102.5q0 52 17.5 98.5t48.5 80.5t73.5 54t92.5 20q55 0 97.5 -20.5t71.5 -55t44 -81.5t15 -99v-14h-404q2 -39 15.5 -74t38 -61.5t58.5 -41.5t77 -15q46 0 86.5 17t71.5 50l27 -34q-36 -38 -82.5 -58t-106.5 -20zM461 266 q0 31 -10.5 63.5t-32.5 59.5t-55 44t-78 17q-43 0 -75 -17t-54 -43.5t-33.5 -59.5t-12.5 -64h351zM272 556h-44l154 144h62z" />
<glyph unicode="&#xea;" horiz-adv-x="567" d="M295 -12q-53 0 -97 18.5t-76 52.5t-50 80.5t-18 102.5q0 52 17.5 98.5t48.5 80.5t73.5 54t92.5 20q55 0 97.5 -20.5t71.5 -55t44 -81.5t15 -99v-14h-404q2 -39 15.5 -74t38 -61.5t58.5 -41.5t77 -15q46 0 86.5 17t71.5 50l27 -34q-36 -38 -82.5 -58t-106.5 -20zM461 266 q0 31 -10.5 63.5t-32.5 59.5t-55 44t-78 17q-43 0 -75 -17t-54 -43.5t-33.5 -59.5t-12.5 -64h351zM373 556l-86 113l-84 -113h-40l97 144h54l99 -144h-40z" />
<glyph unicode="&#xeb;" horiz-adv-x="567" d="M295 -12q-53 0 -97 18.5t-76 52.5t-50 80.5t-18 102.5q0 52 17.5 98.5t48.5 80.5t73.5 54t92.5 20q55 0 97.5 -20.5t71.5 -55t44 -81.5t15 -99v-14h-404q2 -39 15.5 -74t38 -61.5t58.5 -41.5t77 -15q46 0 86.5 17t71.5 50l27 -34q-36 -38 -82.5 -58t-106.5 -20zM461 266 q0 31 -10.5 63.5t-32.5 59.5t-55 44t-78 17q-43 0 -75 -17t-54 -43.5t-33.5 -59.5t-12.5 -64h351zM426 601q0 -15 -11 -26t-26 -11t-26 11t-11 26t11 26t26 11t26 -11t11 -26zM222 601q0 -15 -11 -26t-26 -11t-26 11t-11 26t11 26t26 11t26 -11t11 -26z" />
<glyph unicode="&#xec;" horiz-adv-x="214" d="M122 556l-172 144h62l154 -144h-44zM81 0v483h52v-483h-52z" />
<glyph unicode="&#xed;" horiz-adv-x="214" d="M92 556h-44l154 144h62zM81 0v483h52v-483h-52z" />
<glyph unicode="&#xee;" horiz-adv-x="214" d="M192 556l-86 113l-84 -113h-40l97 144h54l99 -144h-40zM81 0v483h52v-483h-52z" />
<glyph unicode="&#xef;" horiz-adv-x="214" d="M246 601q0 -15 -11 -26t-26 -11t-26 11t-11 26t11 26t26 11t26 -11t11 -26zM42 601q0 -15 -11 -26t-26 -11t-26 11t-11 26t11 26t26 11t26 -11t11 -26zM81 0v483h52v-483h-52z" />
<glyph unicode="&#xf0;" d="M116 544l121 53q-20 14 -40 27l-41 26l30 44l55 -34q27 -18 53 -38l109 48l14 -33l-91 -41q40 -34 75.5 -72.5t61 -82.5t40.5 -93t15 -104q0 -54 -16.5 -101t-46.5 -81.5t-73 -54t-97 -19.5q-53 0 -95.5 19t-72.5 53t-46.5 79.5t-16.5 98.5t16 98.5t45 79t70 52.5t91 19 q45 0 84 -19.5t73 -67.5q-32 52 -72 93.5t-89 78.5l-142 -62zM285 35q43 0 76 17t55.5 45t34 64.5t11.5 76.5q0 39 -11.5 75.5t-34 64.5t-55.5 45t-76 17q-42 0 -75 -17t-55.5 -45t-34 -64.5t-11.5 -75.5q0 -40 11.5 -76.5t34 -64.5t55.5 -45t75 -17z" />
<glyph unicode="&#xf1;" horiz-adv-x="540" d="M409 0v327q0 35 -8.5 58t-24 37t-37 20t-47.5 6q-23 0 -46 -7t-44 -18t-38 -26.5t-29 -31.5v-365h-52v483h52v-73q13 16 32 31t42 27t48.5 19.5t51.5 7.5q74 0 113 -37.5t39 -119.5v-338h-52zM331 554q-28 0 -43.5 16t-27 35t-23 35t-31.5 16q-23 0 -38.5 -22.5 t-15.5 -73.5h-35q0 28 6 52.5t18 42.5t29 28.5t40 10.5q28 0 43.5 -16t27 -35t23 -35t31.5 -16q23 0 38.5 22.5t15.5 73.5h35q0 -28 -6 -52.5t-17.5 -42.5t-29 -28.5t-40.5 -10.5z" />
<glyph unicode="&#xf2;" d="M285 -12q-53 0 -95.5 20t-72.5 54.5t-46.5 80.5t-16.5 99t16.5 99t46.5 80.5t72.5 54t95.5 19.5q54 0 97 -19.5t73 -54t46.5 -80.5t16.5 -99t-16.5 -99t-46.5 -80.5t-73 -54.5t-97 -20zM285 35q43 0 76 17t55.5 46t34 66t11.5 78q0 40 -11.5 77.5t-34 66t-55.5 45.5 t-76 17q-42 0 -75 -17t-55.5 -45.5t-34 -66t-11.5 -77.5q0 -41 11.5 -78t34 -66t55.5 -46t75 -17zM302 556l-172 144h62l154 -144h-44z" />
<glyph unicode="&#xf3;" d="M285 -12q-53 0 -95.5 20t-72.5 54.5t-46.5 80.5t-16.5 99t16.5 99t46.5 80.5t72.5 54t95.5 19.5q54 0 97 -19.5t73 -54t46.5 -80.5t16.5 -99t-16.5 -99t-46.5 -80.5t-73 -54.5t-97 -20zM285 35q43 0 76 17t55.5 46t34 66t11.5 78q0 40 -11.5 77.5t-34 66t-55.5 45.5 t-76 17q-42 0 -75 -17t-55.5 -45.5t-34 -66t-11.5 -77.5q0 -41 11.5 -78t34 -66t55.5 -46t75 -17zM271 556h-44l154 144h62z" />
<glyph unicode="&#xf4;" d="M285 -12q-53 0 -95.5 20t-72.5 54.5t-46.5 80.5t-16.5 99t16.5 99t46.5 80.5t72.5 54t95.5 19.5q54 0 97 -19.5t73 -54t46.5 -80.5t16.5 -99t-16.5 -99t-46.5 -80.5t-73 -54.5t-97 -20zM285 35q43 0 76 17t55.5 46t34 66t11.5 78q0 40 -11.5 77.5t-34 66t-55.5 45.5 t-76 17q-42 0 -75 -17t-55.5 -45.5t-34 -66t-11.5 -77.5q0 -41 11.5 -78t34 -66t55.5 -46t75 -17zM372 556l-86 113l-84 -113h-40l97 144h54l99 -144h-40z" />
<glyph unicode="&#xf5;" d="M285 -12q-53 0 -95.5 20t-72.5 54.5t-46.5 80.5t-16.5 99t16.5 99t46.5 80.5t72.5 54t95.5 19.5q54 0 97 -19.5t73 -54t46.5 -80.5t16.5 -99t-16.5 -99t-46.5 -80.5t-73 -54.5t-97 -20zM285 35q43 0 76 17t55.5 46t34 66t11.5 78q0 40 -11.5 77.5t-34 66t-55.5 45.5 t-76 17q-42 0 -75 -17t-55.5 -45.5t-34 -66t-11.5 -77.5q0 -41 11.5 -78t34 -66t55.5 -46t75 -17zM346 554q-28 0 -43.5 16t-27 35t-23 35t-31.5 16q-23 0 -38.5 -22.5t-15.5 -73.5h-35q0 28 6 52.5t18 42.5t29 28.5t40 10.5q28 0 43.5 -16t27 -35t23 -35t31.5 -16 q23 0 38.5 22.5t15.5 73.5h35q0 -28 -6 -52.5t-17.5 -42.5t-29 -28.5t-40.5 -10.5z" />
<glyph unicode="&#xf6;" d="M285 -12q-53 0 -95.5 20t-72.5 54.5t-46.5 80.5t-16.5 99t16.5 99t46.5 80.5t72.5 54t95.5 19.5q54 0 97 -19.5t73 -54t46.5 -80.5t16.5 -99t-16.5 -99t-46.5 -80.5t-73 -54.5t-97 -20zM285 35q43 0 76 17t55.5 46t34 66t11.5 78q0 40 -11.5 77.5t-34 66t-55.5 45.5 t-76 17q-42 0 -75 -17t-55.5 -45.5t-34 -66t-11.5 -77.5q0 -41 11.5 -78t34 -66t55.5 -46t75 -17zM425 601q0 -15 -11 -26t-26 -11t-26 11t-11 26t11 26t26 11t26 -11t11 -26zM221 601q0 -15 -11 -26t-26 -11t-26 11t-11 26t11 26t26 11t26 -11t11 -26z" />
<glyph unicode="&#xf7;" horiz-adv-x="511" d="M295 531q0 -16 -11.5 -28t-27.5 -12q-17 0 -28.5 12t-11.5 28q0 17 11.5 28t28.5 11q16 0 27.5 -11t11.5 -28zM29 316v42h453v-42h-453zM295 139q0 -17 -11.5 -28.5t-27.5 -11.5q-17 0 -28.5 11.5t-11.5 28.5q0 16 11.5 27.5t28.5 11.5q16 0 27.5 -11.5t11.5 -27.5z" />
<glyph unicode="&#xf8;" d="M74 0l45 59q-32 35 -48.5 82t-16.5 101q0 53 16.5 99t46.5 80.5t72.5 54t95.5 19.5q40 0 74 -11.5t61 -31.5l24 31h44l-41 -53q34 -35 52.5 -83t18.5 -105q0 -53 -16.5 -99t-46.5 -80.5t-73 -54.5t-97 -20q-42 0 -77 12t-63 35l-27 -35h-44zM285 35q43 0 76 17t55.5 46 t34 66t11.5 78t-12.5 78.5t-35.5 66.5l-238 -312q21 -19 48.5 -29.5t60.5 -10.5zM109 242q0 -40 11 -76t32 -65l237 311q-20 17 -46 26.5t-58 9.5q-42 0 -75 -17t-55.5 -45.5t-34 -66t-11.5 -77.5z" />
<glyph unicode="&#xf9;" horiz-adv-x="540" d="M407 0v71q-15 -17 -34 -32t-41.5 -26t-47.5 -18t-51 -7q-74 0 -113 36.5t-39 118.5v340h52v-328q0 -35 8.5 -58.5t24 -37t37 -19t47.5 -5.5q23 0 46 6.5t43.5 17.5t38 25.5t29.5 30.5v368h52v-483h-52zM288 556l-172 144h62l154 -144h-44z" />
<glyph unicode="&#xfa;" horiz-adv-x="540" d="M407 0v71q-15 -17 -34 -32t-41.5 -26t-47.5 -18t-51 -7q-74 0 -113 36.5t-39 118.5v340h52v-328q0 -35 8.5 -58.5t24 -37t37 -19t47.5 -5.5q23 0 46 6.5t43.5 17.5t38 25.5t29.5 30.5v368h52v-483h-52zM256 556h-44l154 144h62z" />
<glyph unicode="&#xfb;" horiz-adv-x="540" d="M407 0v71q-15 -17 -34 -32t-41.5 -26t-47.5 -18t-51 -7q-74 0 -113 36.5t-39 118.5v340h52v-328q0 -35 8.5 -58.5t24 -37t37 -19t47.5 -5.5q23 0 46 6.5t43.5 17.5t38 25.5t29.5 30.5v368h52v-483h-52zM355 556l-86 113l-84 -113h-40l97 144h54l99 -144h-40z" />
<glyph unicode="&#xfc;" horiz-adv-x="540" d="M407 0v71q-15 -17 -34 -32t-41.5 -26t-47.5 -18t-51 -7q-74 0 -113 36.5t-39 118.5v340h52v-328q0 -35 8.5 -58.5t24 -37t37 -19t47.5 -5.5q23 0 46 6.5t43.5 17.5t38 25.5t29.5 30.5v368h52v-483h-52zM413 601q0 -15 -11 -26t-26 -11t-26 11t-11 26t11 26t26 11t26 -11 t11 -26zM209 601q0 -15 -11 -26t-26 -11t-26 11t-11 26t11 26t26 11t26 -11t11 -26z" />
<glyph unicode="&#xfd;" horiz-adv-x="481" d="M58 -141q8 -4 20.5 -6t21.5 -2q24 0 41.5 12t32.5 47l38 86l-205 487h58l176 -422l174 422h59l-250 -589q-38 -90 -123 -90q-13 0 -27.5 2t-24.5 5zM226 556h-44l154 144h62z" />
<glyph unicode="&#xfe;" horiz-adv-x="567" d="M301 -12q-51 0 -95 24t-73 66v-262h-52v851h52v-260q26 37 70 62.5t98 25.5q48 0 88 -17.5t68.5 -50.5t44 -80t15.5 -105t-15.5 -105t-44 -80t-68.5 -51t-88 -18zM292 35q40 0 71.5 16t53.5 43.5t33 65.5t11 82t-11 81.5t-33 65.5t-53.5 43.5t-71.5 15.5 q-51 0 -94.5 -25.5t-64.5 -60.5v-239q10 -17 27 -33t38 -28t45 -19.5t49 -7.5z" />
<glyph unicode="&#xff;" horiz-adv-x="481" d="M58 -141q8 -4 20.5 -6t21.5 -2q24 0 41.5 12t32.5 47l38 86l-205 487h58l176 -422l174 422h59l-250 -589q-38 -90 -123 -90q-13 0 -27.5 2t-24.5 5zM380 601q0 -15 -11 -26t-26 -11t-26 11t-11 26t11 26t26 11t26 -11t11 -26zM176 601q0 -15 -11 -26t-26 -11t-26 11 t-11 26t11 26t26 11t26 -11t11 -26z" />
<glyph unicode="&#x2c6;" horiz-adv-x="250" d="M210 556l-86 113l-84 -113h-40l97 144h54l99 -144h-40z" />
<glyph unicode="&#x2dc;" horiz-adv-x="307" d="M214 554q-28 0 -43.5 16t-27 35t-23 35t-31.5 16q-23 0 -38.5 -22.5t-15.5 -73.5h-35q0 28 6 52.5t18 42.5t29 28.5t40 10.5q28 0 43.5 -16t27 -35t23 -35t31.5 -16q23 0 38.5 22.5t15.5 73.5h35q0 -28 -6 -52.5t-17.5 -42.5t-29 -28.5t-40.5 -10.5z" />
<glyph unicode="&#x2013;" horiz-adv-x="593" d="M30 218v48h533v-48h-533z" />
<glyph unicode="&#x2014;" horiz-adv-x="833" d="M30 218v48h773v-48h-773z" />
<glyph unicode="&#x2018;" horiz-adv-x="219" d="M51 541q0 42 21.5 78.5t50.5 57.5l29 -24q-24 -17 -40 -43t-18 -50q0 1 4 1.5t6 0.5q18 0 29.5 -12t11.5 -30q0 -17 -12.5 -30t-30.5 -13q-20 0 -35.5 16.5t-15.5 47.5z" />
<glyph unicode="&#x2019;" horiz-adv-x="219" d="M159 613q0 -42 -21.5 -78.5t-50.5 -57.5l-29 24q24 17 40 43t18 50q0 -1 -4 -1.5t-6 -0.5q-18 0 -29.5 12t-11.5 30q0 17 12.5 30t30.5 13q20 0 35.5 -16.5t15.5 -47.5z" />
<glyph unicode="&#x201a;" horiz-adv-x="219" d="M159 14q0 -42 -21.5 -79t-50.5 -57l-29 24q24 17 40 43t18 49q-2 -1 -4 -1h-6q-18 0 -29.5 12t-11.5 30q0 17 12.5 30t30.5 13q20 0 35.5 -16.5t15.5 -47.5z" />
<glyph unicode="&#x201c;" horiz-adv-x="361" d="M60 541q0 42 21 78.5t50 57.5l30 -24q-24 -17 -40.5 -43t-18.5 -50q1 1 5 1.5t6 0.5q17 0 28.5 -12t11.5 -30q0 -17 -12 -30t-30 -13q-20 0 -35.5 16.5t-15.5 47.5zM202 541q0 42 21 78.5t50 57.5l30 -24q-24 -17 -40.5 -43t-18.5 -50q1 1 4.5 1.5t6.5 0.5q17 0 28.5 -12 t11.5 -30q0 -17 -12 -30t-31 -13q-20 0 -35 16.5t-15 47.5z" />
<glyph unicode="&#x201d;" horiz-adv-x="361" d="M300 613q0 -42 -21 -78.5t-50 -57.5l-30 24q24 17 40.5 43t18.5 50q-1 -1 -4.5 -1.5t-6.5 -0.5q-17 0 -28.5 12t-11.5 30q0 17 12 30t31 13q20 0 35 -16.5t15 -47.5zM159 613q0 -42 -21.5 -78.5t-50.5 -57.5l-29 24q24 17 40 43t18 50q0 -1 -4 -1.5t-6 -0.5 q-18 0 -29.5 12t-11.5 30q0 17 12.5 30t30.5 13q20 0 35.5 -16.5t15.5 -47.5z" />
<glyph unicode="&#x201e;" horiz-adv-x="361" d="M159 14q0 -42 -21.5 -79t-50.5 -57l-29 24q24 17 40 43t18 49q-2 -1 -4 -1h-6q-18 0 -29.5 12t-11.5 30q0 17 12.5 30t30.5 13q20 0 35.5 -16.5t15.5 -47.5zM300 14q0 -42 -21 -79t-50 -57l-30 24q24 17 40.5 43t18.5 49q-1 0 -4.5 -0.5t-6.5 -0.5q-17 0 -28.5 12 t-11.5 30q0 17 12 30t31 13q20 0 35 -16.5t15 -47.5z" />
<glyph unicode="&#x2022;" horiz-adv-x="358" d="M283 242q0 -21 -8 -39.5t-22 -32.5t-33 -22t-40 -8t-40 8t-33 22t-22 32.5t-8 39.5t8 40t22 33t33 22t40 8t40 -8t33 -22t22 -33t8 -40z" />
<glyph unicode="&#x2026;" horiz-adv-x="657" d="M154 35q0 -18 -13 -31t-31 -13t-31 13t-13 31q0 17 13 30t31 13t31 -13t13 -30zM373 35q0 -18 -13 -31t-31 -13t-31 13t-13 31q0 17 13 30t31 13t31 -13t13 -30zM592 35q0 -18 -13 -31t-31 -13t-31 13t-13 31q0 17 13 30t31 13t31 -13t13 -30z" />
<glyph unicode="&#x2039;" horiz-adv-x="277" d="M190 63l-160 180l160 177h57l-160 -177l160 -180h-57z" />
<glyph unicode="&#x203a;" horiz-adv-x="277" d="M87 63h-57l160 180l-160 177h57l160 -177z" />
<glyph unicode="&#x2122;" horiz-adv-x="454" d="M391 447v182l-75 -182h-8l-75 182v-182h-28v220h43l64 -160l64 160h43v-220h-28zM107 641v-194h-28v194h-62v26h152v-26h-62z" />
<glyph unicode="&#x25fc;" horiz-adv-x="485" d="M0 485h485v-485h-485v485z" />
</font>
</defs>
</svg>
